# xmcd CD database file
# Copyright (C) 1993-1996 Ti Kan
#
# Track frame offsets:
# 150
# 14947
# 30922
# 43977
# 69045
# 88070
# 103392
# 118132
# 132240
# 148220
#
# Disc length: 2178 seconds
# Revision: 0
# Processed by: cddbd v1.4b41PL1 Copyright (c) Steve Scherf et al.
# Submitted via: CDSpectrumPro v3.2.327
#
DISCID=9408800a
DTITLE=Ray Stevens - Lassoes 'n Spurs
DYEAR=1900
DGENRE=
TTITLE0=The Streak
TTITLE1=Everything Is Beautiful
TTITLE2=Misty
TTITLE3=Shriner's Convention
TTITLE4=One More Last Chance
TTITLE5=Night Games
TTITLE6=Where The Sun Don't Shine
TTITLE7=Written Down In My Heart
TTITLE8=Such A Night
TTITLE9=Mr. Businessman
EXTD=
EXTT0=
EXTT1=
EXTT2=
EXTT3=
EXTT4=
EXTT5=
EXTT6=
EXTT7=
EXTT8=
EXTT9=
PLAYORDER=
